<svg xmlns="http://www.w3.org/2000/svg" xmlns:xlink="http://www.w3.org/1999/xlink" width="24" height="24" viewBox="0 0 24 24" fill="none">
<path   fill-rule="evenodd"  fill="#000000"  d="M10 18L10 16L8 16L8 14L10 14L10 12L12 12L12 14L14 14L14 16L12 16L12 18L10 18ZM6 2C4.34315 2 3 3.34315 3 5L3 19C3 20.6569 4.34315 22 6 22L18 22C19.6569 22 21 20.6569 21 19L21 9C21 5.13401 17.866 2 14 2L6 2ZM6 4L13 4L13 9L19 9L19 19C19 19.5523 18.5523 20 18 20L6 20C5.44772 20 5 19.5523 5 19L5 5C5 4.44772 5.44771 4 6 4ZM15 4.10002C16.6113 4.4271 17.9413 5.52906 18.584 7L15 7L15 4.10002Z">
</path>
</svg>
