<svg xmlns="http://www.w3.org/2000/svg" xmlns:xlink="http://www.w3.org/1999/xlink" width="24" height="24" viewBox="0 0 24 24" fill="none">
<path   fill-rule="evenodd"  fill="#000000"  d="M8.01562 6.98193C7.46334 6.98193 7.01562 7.43285 7.01562 7.98513C7.01562 8.53742 7.46334 8.98833 8.01563 8.98833L15.9659 8.98833C16.5182 8.98833 16.966 8.53742 16.966 7.98513C16.966 7.43285 16.5182 6.98193 15.9659 6.98193L8.01562 6.98193ZM7.01562 12C7.01562 11.4477 7.46334 10.9968 8.01562 10.9968L15.9659 10.9968C16.5182 10.9968 16.966 11.4477 16.966 12C16.966 12.5523 16.5182 13.0032 15.9659 13.0032L8.01563 13.0032C7.46334 13.0032 7.01562 12.5523 7.01562 12ZM8.0249 15.0122C7.47262 15.0122 7.0249 15.4631 7.0249 16.0154C7.0249 16.5677 7.47262 17.0186 8.0249 17.0186L15.9752 17.0186C16.5275 17.0186 16.9752 16.5677 16.9752 16.0154C16.9752 15.4631 16.5275 15.0122 15.9752 15.0122L8.0249 15.0122ZM3 6C3 4.34315 4.34315 3 6 3L18 3C19.6569 3 21 4.34315 21 6L21 18C21 19.6569 19.6569 21 18 21L6 21C4.34315 21 3 19.6569 3 18L3 6ZM6 5L18 5C18.5523 5 19 5.44772 19 6L19 18C19 18.5523 18.5523 19 18 19L6 19C5.44772 19 5 18.5523 5 18L5 6C5 5.44772 5.44772 5 6 5Z">
</path>
</svg>
