<svg xmlns="http://www.w3.org/2000/svg" xmlns:xlink="http://www.w3.org/1999/xlink" width="24" height="24" viewBox="0 0 24 24" fill="none">
<path   fill-rule="evenodd"  fill="#000000"  d="M7 14C8.10457 14 9 13.1046 9 12C9 10.8954 8.10457 10 7 10C5.89543 10 5 10.8954 5 12C5 13.1046 5.89543 14 7 14ZM14 12C14 13.1046 13.1046 14 12 14C10.8954 14 10 13.1046 10 12C10 10.8954 10.8954 10 12 10C13.1046 10 14 10.8954 14 12ZM17 14C18.1046 14 19 13.1046 19 12C19 10.8954 18.1046 10 17 10C15.8954 10 15 10.8954 15 12C15 13.1046 15.8954 14 17 14ZM0 5C0 3.34315 1.34315 2 3 2L21 2C22.6569 2 24 3.34315 24 5L24 19C24 20.6569 22.6569 22 21 22L3 22C1.34315 22 0 20.6569 0 19L0 5ZM3 4L21 4C21.5523 4 22 4.44772 22 5L22 19C22 19.5523 21.5523 20 21 20L3 20C2.44772 20 2 19.5523 2 19L2 5C2 4.44772 2.44771 4 3 4Z">
</path>
</svg>
