<svg xmlns="http://www.w3.org/2000/svg" xmlns:xlink="http://www.w3.org/1999/xlink" width="24" height="24" viewBox="0 0 24 24" fill="none">
<path   fill-rule="evenodd"  fill="#000000"  d="M11 14.9861C11 15.5384 11.4477 15.9861 12 15.9861C12.5523 15.9861 13 15.5384 13 14.9861L13 7.82832L16.2428 11.0711L17.657 9.65686L12.0001 4L6.34326 9.65686L7.75748 11.0711L11 7.82855L11 14.9861ZM4 14L6 14L6 18L18 18L18 14L20 14L20 18C20 19.1046 19.1046 20 18 20L6 20C4.89543 20 4 19.1046 4 18L4 14Z">
</path>
</svg>
