<svg xmlns="http://www.w3.org/2000/svg" xmlns:xlink="http://www.w3.org/1999/xlink" width="24" height="24" viewBox="0 0 24 24" fill="none">
<path d="M2 8C2 6.34315 3.34315 5 5 5L19 5C20.6569 5 22 6.34315 22 8L22 16C22 17.6569 20.6569 19 19 19L5 19C3.34315 19 2 17.6569 2 16L2 8ZM5 7L19 7C19.5523 7 20 7.44771 20 8L20 11L4 11L4 8C4 7.44772 4.44772 7 5 7ZM4 13L4 16C4 16.5523 4.44772 17 5 17L8 17L8 13L4 13ZM10 17L19 17C19.5523 17 20 16.5523 20 16L20 13L10 13L10 17Z" fill-rule="evenodd"  fill="#000000" >
</path>
</svg>
