<svg xmlns="http://www.w3.org/2000/svg" xmlns:xlink="http://www.w3.org/1999/xlink" width="24" height="24" viewBox="0 0 24 24" fill="none">
<path   fill-rule="evenodd"  fill="#000000"  d="M17 5L7 5L7 7L17 7L17 5ZM7 9L9 9L9 11L7 11L7 9ZM9 13L7 13L7 15L9 15L9 13ZM7 17L9 17L9 19L7 19L7 17ZM13 9L11 9L11 11L13 11L13 9ZM11 13L13 13L13 15L11 15L11 13ZM13 17L11 17L11 19L13 19L13 17ZM15 9L17 9L17 11L15 11L15 9ZM17 13L15 13L15 19L17 19L17 13ZM3 3C3 1.89543 3.89543 1 5 1L19 1C20.1046 1 21 1.89543 21 3L21 21C21 22.1046 20.1046 23 19 23L5 23C3.89543 23 3 22.1046 3 21L3 3ZM5 3L19 3L19 21L5 21L5 3Z">
</path>
</svg>
